<svg width="1203" height="362" viewBox="0 0 1203 362" fill="none" xmlns="http://www.w3.org/2000/svg">
<path d="M39.875 105.375C39.875 106.75 39.25 107.438 38 107.438C37.375 107.438 36.875 107.208 36.5 106.75C36.125 106.333 35.9375 105.521 35.9375 104.312C35.9375 103.104 36.2292 100.729 36.8125 97.1875C37.3958 93.6875 37.6875 90.625 37.6875 88C37.6875 85.3333 37 82.4375 35.625 79.3125L4.625 8C3.70833 5.75 2.22917 3.9375 0.1875 2.5625L1 1.375C2.95833 2.66667 5.20833 3.3125 7.75 3.3125H29.5625C32.1042 3.3125 33.9375 2.4375 35.0625 0.6875L36.875 1.8125C36.1667 2.72917 35.8125 3.625 35.8125 4.5C35.8125 5.33333 36.375 7.25 37.5 10.25C38.6667 13.25 40.1875 17.0208 42.0625 21.5625C43.9375 26.0625 45.6875 30.25 47.3125 34.125C48.9792 38 50.7292 42.0625 52.5625 46.3125C54.3958 50.5625 55.4167 52.9375 55.625 53.4375C55.8333 52.9375 56.8542 50.5625 58.6875 46.3125C60.5208 42.0625 62.25 38 63.875 34.125C65.5417 30.25 67.3125 26.0417 69.1875 21.5C73.3542 11.4583 75.4375 5.875 75.4375 4.75C75.4375 3.625 75.1042 2.64583 74.4375 1.8125L76.1875 0.6875C77.3125 2.4375 79.1458 3.3125 81.6875 3.3125H103.562C106.146 3.3125 108.417 2.66667 110.375 1.375L111.125 2.5625C109.083 3.9375 107.604 5.75 106.688 8L75.25 82.375C74.7083 83.625 74.4375 86.625 74.4375 91.375C74.4375 96.125 74.9167 101.396 75.875 107.188C76.875 113.021 77.375 117.354 77.375 120.188C77.375 124.229 75.9167 126.25 73 126.25C70.125 126.25 68.6875 124.25 68.6875 120.25C68.6875 117.542 69.2083 113.521 70.25 108.188C71.2917 102.896 71.8125 98.0417 71.8125 93.625C71.8125 89.2083 71.2708 87 70.1875 87H39.9375C39.2708 87 38.9375 88.5417 38.9375 91.625L39.875 105.375ZM150.875 122.688L151.562 106.062C151.562 100.688 151.354 97.2917 150.938 95.875C150.562 94.4583 150.167 93.2083 149.75 92.125C149.333 91.0417 148.792 90.1667 148.125 89.5C147.458 88.8333 146.667 88.2083 145.75 87.625C144 86.4583 141.25 85.875 137.5 85.875C133.75 85.875 130.583 87.3958 128 90.4375C125.458 93.4792 124.188 97.125 124.188 101.375C124.188 102.958 124.5 105.312 125.125 108.438C125.75 111.604 126.062 113.979 126.062 115.562C126.062 118.562 125 120.062 122.875 120.062C120.75 120.062 119.688 118.604 119.688 115.688C119.688 114.062 120 111.625 120.625 108.375C121.292 105.125 121.625 102.667 121.625 101L122.062 84.25V10.8125C122.062 8.22917 121.25 6.14583 119.625 4.5625L120.875 3.25C122.625 4.91667 124.708 5.75 127.125 5.75H149.75C152.25 5.75 154.333 4.91667 156 3.25L157.25 4.5625C155.625 6.1875 154.812 8.27083 154.812 10.8125V83.9375C154.812 86.1042 154.583 89.8333 154.125 95.125C153.667 100.458 153.521 104.562 153.688 107.438H153.625C155.167 114.354 155.938 119.625 155.938 123.25C155.938 126.875 155.25 128.688 153.875 128.688C151.875 128.688 150.875 126.688 150.875 122.688ZM206.812 65.5C208.688 66.4167 209.625 68.125 209.625 70.625V83.9375C209.625 86.4792 210.438 88.5625 212.062 90.1875L210.812 91.4375C209.188 89.8125 207.104 89 204.562 89H182.875C180.333 89 178.25 89.8125 176.625 91.4375L175.375 90.1875C177 88.5625 177.812 86.4792 177.812 83.9375V10.8125C177.812 8.27083 177 6.1875 175.375 4.5625L176.625 3.25C178.292 4.91667 180.375 5.75 182.875 5.75H204.562C207.062 5.75 209.146 4.91667 210.812 3.25L212.062 4.5625C210.438 6.1875 209.625 8.27083 209.625 10.8125V30.25C209.625 32.75 209.125 35.1458 208.125 37.4375L209.062 37.8125C210.021 35.5625 211.417 33.5625 213.25 31.8125L236.812 9.25C237.771 8.33333 238.354 7.5 238.562 6.75C238.812 6 238.75 5 238.375 3.75L240.562 2.9375C241.354 4.8125 243 5.75 245.5 5.75H276.875C279.208 5.75 281.625 5.29167 284.125 4.375L284.438 5.25C282.104 6.125 280 7.39583 278.125 9.0625L252.75 31.125C250.917 32.7917 248.854 33.4792 246.562 33.1875L246.312 35.125C248.562 35.3333 250.396 36.5 251.812 38.625L284.188 84.8125C285.604 86.8958 287.396 88.5208 289.562 89.6875L289 90.6875C286.875 89.5625 284.542 89 282 89H251.812C249.312 89 247.562 89.9375 246.562 91.8125L244.562 90.75C245.146 89.5417 245.375 88.5417 245.25 87.75C245.125 86.9167 244.688 85.9167 243.938 84.75L226.062 58.375C224.688 56.25 224.146 54.0417 224.438 51.75L222.75 51.5625C222.458 53.8125 221.312 55.75 219.312 57.375L213.562 62.3125C212.479 63.1875 211.542 63.7083 210.75 63.875C210 64.0417 209.021 63.8958 207.812 63.4375L206.812 65.5ZM294.812 93L295 102.938C295 104.938 294.688 106.438 294.062 107.438C293.438 108.479 292.688 109 291.812 109C290.062 109 289.188 107.312 289.188 103.938C289.188 100.562 289.604 96.8125 290.438 92.6875C291.271 88.6042 292 85.7917 292.625 84.25L322.625 10.4375C323.042 9.35417 323.25 8.29167 323.25 7.25C323.25 6.20833 322.896 5.1875 322.188 4.1875L323.938 3.0625C325.146 4.85417 327.021 5.75 329.562 5.75H358.312C360.812 5.75 362.667 4.85417 363.875 3.0625L365.688 4.1875C364.979 5.1875 364.625 6.14583 364.625 7.0625C364.625 7.97917 364.875 9.08333 365.375 10.375L396.25 84.3125C397.208 86.6458 398.688 88.4792 400.688 89.8125L399.938 91C397.896 89.6667 395.625 89 393.125 89H380.875C380.958 89.9167 381 90.5625 381 90.9375C381 92.3125 380.438 93 379.312 93C378.812 93 378.354 92.7917 377.938 92.375C377.562 92 377.375 91.4375 377.375 90.6875C377.375 89.9792 377.417 89.4167 377.5 89H369.938C368.104 89 366.917 90 366.375 92C365.708 94.4583 365.375 97.2708 365.375 100.438C365.375 103.646 365.583 106.562 366 109.188C366.417 111.812 366.625 113.604 366.625 114.562C366.625 115.562 366.375 116.354 365.875 116.938C365.417 117.562 364.833 117.875 364.125 117.875C363.417 117.875 362.812 117.583 362.312 117C361.812 116.417 361.562 115.604 361.562 114.562C361.562 113.521 361.812 111.5 362.312 108.5C362.854 105.5 363.125 103.25 363.125 101.75V84.1875C362.708 83.0625 362.5 82.0208 362.5 81.0625C362.5 80.1042 362.875 79.0833 363.625 78L362 76.8125C360.75 78.6042 358.875 79.5 356.375 79.5H330.688C328.188 79.5 326.312 78.625 325.062 76.875L323.438 78C324.229 79.125 324.625 80.1667 324.625 81.125C324.625 82.0833 324.479 83.1042 324.188 84.1875V84.25C323.812 85.6667 323.625 86.75 323.625 87.5C323.625 88.25 324.042 89.2292 324.875 90.4375L323.25 91.625C322 89.875 320.125 89 317.625 89H295C294.875 89.7917 294.812 91.125 294.812 93ZM337.125 62.1875H349.062C351.562 62.1875 353.812 62.8542 355.812 64.1875L356.625 63C354.667 61.6667 353.25 59.8125 352.375 57.4375L344.438 37.125C343.521 34.75 343.042 32.3333 343 29.875H342.188C342.104 32.625 341.688 35.0417 340.938 37.125L333.75 57.375C332.875 59.7917 331.479 61.6667 329.562 63L330.375 64.25C332.333 62.875 334.583 62.1875 337.125 62.1875ZM377.688 109.688C377.688 106.812 378.229 103.208 379.312 98.875C380.521 103.875 381.125 107.125 381.125 108.625C381.125 110.833 380.542 111.938 379.375 111.938C378.25 111.938 377.688 111.188 377.688 109.688ZM447.875 107.25L448.5 100.938V89.25C437.292 88.6667 428.917 87.1458 423.375 84.6875C417.833 82.1875 413.75 79.0625 411.125 75.3125C409.542 73.1042 408.312 70.6458 407.438 67.9375C406.604 65.1875 405.208 63.125 403.25 61.75L404.188 60.4375C406.062 61.6875 408.083 62.3125 410.25 62.3125C412.458 62.3125 415.271 62.2292 418.688 62.0625C422.104 61.8958 425.958 61.7083 430.25 61.5C434.542 61.25 437.604 61.0833 439.438 61C441.271 60.9167 442.625 60.6667 443.5 60.25C444.375 59.7917 445 58.9792 445.375 57.8125L448.188 58.75C448.062 59.0833 448 59.5208 448 60.0625C448 61.4375 449.146 63 451.438 64.75C453.729 66.5 457.875 67.375 463.875 67.375C467.917 67.375 470.792 66.6875 472.5 65.3125C473.25 64.6875 473.625 63.9375 473.625 63.0625C473.625 61.0208 472.5 59.6667 470.25 59C468 58.3333 465.271 57.7708 462.062 57.3125C458.896 56.8125 455.708 56.4167 452.5 56.125C449.333 55.8333 445.896 55.4167 442.188 54.875C438.479 54.3333 434.979 53.75 431.688 53.125C428.396 52.4583 425.188 51.5 422.062 50.25C418.979 49 416.333 47.5417 414.125 45.875C411.917 44.1667 410.125 42 408.75 39.375C407.417 36.7083 406.75 33.6875 406.75 30.3125C406.75 26.9375 407.271 23.8542 408.312 21.0625C409.396 18.2708 410.854 15.875 412.688 13.875C414.521 11.875 416.729 10.1042 419.312 8.5625C421.938 7.02083 424.667 5.77083 427.5 4.8125C430.375 3.85417 433.5 3.08333 436.875 2.5C442.75 1.41667 448.292 0.875 453.5 0.875C458.708 0.875 462.667 0.958333 465.375 1.125C468.125 1.25 471.333 1.52083 475 1.9375C478.708 2.3125 482.042 2.95833 485 3.875C488 4.75 490.958 5.875 493.875 7.25C499.958 10.0833 504.229 14.4792 506.688 20.4375C507.688 22.5625 509.062 24.5417 510.812 26.375L510 27.8125C508.25 26.6042 506.229 26 503.938 26H503.125C499.792 26.125 495.021 26.375 488.812 26.75C482.646 27.0833 478.667 27.2917 476.875 27.375C475.125 27.4583 473.854 27.7083 473.062 28.125C472.312 28.5417 471.771 29.3333 471.438 30.5L468.688 29.75C468.812 29.375 468.875 28.9792 468.875 28.5625C468.875 26.8125 467.458 25.3125 464.625 24.0625C461.792 22.7708 458.583 22.125 455 22.125C448 22.125 444.5 23.5 444.5 26.25C444.5 28.7083 449.75 30.5 460.25 31.625C462.708 31.9167 465.5 32.2083 468.625 32.5C479.5 33.625 487.833 35.1042 493.625 36.9375C505.792 40.7708 511.875 48.0833 511.875 58.875C511.875 63.2917 510.958 67.2708 509.125 70.8125C507.292 74.3125 504.896 77.1667 501.938 79.375C499.021 81.5833 495.562 83.4167 491.562 84.875C484.354 87.5 476.125 88.8125 466.875 88.8125C464.375 88.8125 462.896 88.7917 462.438 88.75C460.188 88.75 459.062 90.4792 459.062 93.9375V95.4375C459.062 96.5625 459.333 98.2083 459.875 100.375C460.458 102.583 460.75 104.229 460.75 105.312C460.75 107.521 459.979 108.625 458.438 108.625C457.646 108.625 457.021 108.292 456.562 107.625C456.146 106.958 455.938 106.125 455.938 105.125C455.938 104.125 456.188 102.417 456.688 100C457.229 97.625 457.5 95.8958 457.5 94.8125C457.5 93.7292 457.479 92.9583 457.438 92.5C457.438 92.0833 457.375 91.5417 457.25 90.875C457.167 90.25 457 89.7917 456.75 89.5C456.167 88.75 455.167 88.375 453.75 88.375C451.167 88.375 449.875 90.625 449.875 95.125L450.25 105.375C450.25 108.125 449.854 109.5 449.062 109.5C448.271 109.5 447.875 108.75 447.875 107.25Z" fill="url(#paint0_linear_161_17)"/>
<path d="M41.6875 288.5C43.5625 289.417 44.5 291.125 44.5 293.625V306.938C44.5 309.479 45.3125 311.562 46.9375 313.188L45.6875 314.438C44.0625 312.812 41.9792 312 39.4375 312H17.75C15.2083 312 13.125 312.812 11.5 314.438L10.25 313.188C11.875 311.562 12.6875 309.479 12.6875 306.938V233.812C12.6875 231.271 11.875 229.188 10.25 227.562L11.5 226.25C13.1667 227.917 15.25 228.75 17.75 228.75H39.4375C41.9375 228.75 44.0208 227.917 45.6875 226.25L46.9375 227.562C45.3125 229.188 44.5 231.271 44.5 233.812V253.25C44.5 255.75 44 258.146 43 260.438L43.9375 260.812C44.8958 258.562 46.2917 256.562 48.125 254.812L71.6875 232.25C72.6458 231.333 73.2292 230.5 73.4375 229.75C73.6875 229 73.625 228 73.25 226.75L75.4375 225.938C76.2292 227.812 77.875 228.75 80.375 228.75H111.75C114.083 228.75 116.5 228.292 119 227.375L119.312 228.25C116.979 229.125 114.875 230.396 113 232.062L87.625 254.125C85.7917 255.792 83.7292 256.479 81.4375 256.188L81.1875 258.125C83.4375 258.333 85.2708 259.5 86.6875 261.625L119.062 307.812C120.479 309.896 122.271 311.521 124.438 312.688L123.875 313.688C121.75 312.562 119.417 312 116.875 312H86.6875C84.1875 312 82.4375 312.938 81.4375 314.812L79.4375 313.75C80.0208 312.542 80.25 311.542 80.125 310.75C80 309.917 79.5625 308.917 78.8125 307.75L60.9375 281.375C59.5625 279.25 59.0208 277.042 59.3125 274.75L57.625 274.562C57.3333 276.812 56.1875 278.75 54.1875 280.375L48.4375 285.312C47.3542 286.188 46.4167 286.708 45.625 286.875C44.875 287.042 43.8958 286.896 42.6875 286.438L41.6875 288.5ZM232.875 241.375L233.438 273.312C233.438 284.438 232.062 292.583 229.312 297.75C226.729 302.667 223.042 306.354 218.25 308.812C212.792 311.646 205.542 313.479 196.5 314.312V326L197.125 332.438C197.125 333.854 196.729 334.562 195.938 334.562C195.146 334.562 194.75 333.188 194.75 330.438L195.125 320.25C195.125 315.75 193.729 313.5 190.938 313.5C188.771 313.5 187.688 315.271 187.688 318.812C187.688 318.812 187.792 320.625 188 324.25C188 325.5 188.25 327.312 188.75 329.688C189.292 332.104 189.562 333.812 189.562 334.812C189.562 335.812 189.354 336.646 188.938 337.312C188.521 337.979 187.917 338.312 187.125 338.312C186.333 338.312 185.729 337.958 185.312 337.25C184.938 336.583 184.75 335.771 184.75 334.812C184.75 333.854 185.021 332.271 185.562 330.062C186.146 327.896 186.438 326.5 186.438 325.875C186.438 325.25 186.438 324.604 186.438 323.938C186.438 323.312 186.417 322.667 186.375 322C186.333 321.333 186.229 320.5 186.062 319.5C185.729 317.417 184.729 316.375 183.062 316.375C179.979 316.375 178.438 319.417 178.438 325.5V328.375C178.438 329.917 178.812 332.167 179.562 335.125C180.312 338.083 180.688 340.208 180.688 341.5C180.688 344.708 179.646 346.312 177.562 346.312C176.521 346.312 175.688 345.875 175.062 345C174.479 344.125 174.188 343 174.188 341.625C174.188 340.25 174.521 337.917 175.188 334.625C175.896 331.333 176.25 328.833 176.25 327.125V314.688C164.417 314.146 155.542 312.417 149.625 309.5C139.292 304.5 133.979 295 133.688 281C133.604 277.125 133.562 271.354 133.562 263.688L133.688 234.812C133.688 232.354 132.875 230.292 131.25 228.625L132.562 227.375C134.104 228.958 136.167 229.75 138.75 229.75H160.875C163.417 229.75 165.479 228.958 167.062 227.375L168.375 228.625C166.792 230.25 166 232.312 166 234.812L166.125 266.938C166.125 273.146 166.292 277.083 166.625 278.75C166.958 280.417 167.312 281.958 167.688 283.375C168.104 284.75 168.583 285.854 169.125 286.688C169.708 287.521 170.438 288.417 171.312 289.375C172.188 290.292 173.188 291 174.312 291.5C176.938 292.667 179.5 293.25 182 293.25C184.542 293.25 186.5 293.146 187.875 292.938C189.292 292.688 190.521 292.312 191.562 291.812C192.646 291.271 193.604 290.708 194.438 290.125C195.312 289.5 196.042 288.729 196.625 287.812C197.25 286.854 197.792 285.958 198.25 285.125C198.708 284.25 199.062 283.167 199.312 281.875C199.604 280.583 199.833 279.458 200 278.5C200.167 277.5 200.292 276.25 200.375 274.75C200.5 272.458 200.562 269.854 200.562 266.938L200.688 234.812C200.688 232.271 199.917 230.208 198.375 228.625L199.562 227.375C201.146 228.958 203.229 229.75 205.812 229.75H227.938C230.562 229.75 232.646 228.958 234.188 227.375L235.438 228.625C233.729 230.375 232.875 234.625 232.875 241.375ZM198 346.688C198 348.646 197.312 349.625 195.938 349.625C194.562 349.625 193.875 348.604 193.875 346.562C193.875 344.562 194.167 342.854 194.75 341.438C195.375 340.062 195.75 339.375 195.875 339.375C196 339.375 196.229 339.75 196.562 340.5C197.521 342.667 198 344.729 198 346.688ZM350.75 324.125L351.625 317.188L351.5 306.938V258.5C351.5 255.917 352.417 253.396 354.25 250.938H350.812C349.604 256.896 345.854 267.479 339.562 282.688C333.604 297.104 330.625 306.271 330.625 310.188L330.75 323.938C330.75 325.438 331.083 327.667 331.75 330.625C332.458 333.625 332.812 335.896 332.812 337.438C332.812 339.812 331.896 341 330.062 341C328.229 341 327.312 339.792 327.312 337.375C327.312 335.792 327.688 333.438 328.438 330.312C329.188 327.229 329.562 324.896 329.562 323.312C329.562 318.312 328.312 314.583 325.812 312.125C323.354 309.708 320.604 308.5 317.562 308.5C314.562 308.5 312.083 309.146 310.125 310.438C308.167 311.729 307.188 313.333 307.188 315.25L307.938 322.062C307.938 323.604 307.375 324.375 306.25 324.375C305.125 324.375 304.562 323.542 304.562 321.875L305.688 310.188C305.688 306.188 302.688 297.083 296.688 282.875C290.438 268 286.729 257.375 285.562 251H282.125C283.875 253.333 284.75 255.833 284.75 258.5V320.25L286 330.75C286 332.958 285.25 334.062 283.75 334.062C282.25 334.062 281.5 333 281.5 330.875L282.875 320.625C282.875 319.042 282.562 317.896 281.938 317.188C280.562 315.646 275.875 314.875 267.875 314.875C259.875 314.875 255.875 314.917 255.875 315L256.188 323.25C256.188 324.208 255.708 324.688 254.75 324.688C253.792 324.688 253.312 324.25 253.312 323.375L253.688 314.688V237.875C253.688 232.958 252.188 228.854 249.188 225.562L250.5 224.25C253.917 227.25 258.021 228.75 262.812 228.75H294.75C300.208 228.75 304.125 227.167 306.5 224L308.125 225.188C306 228.271 304.938 231.125 304.938 233.75C304.938 236.333 305.604 239.208 306.938 242.375C308.271 245.5 309.729 248.479 311.312 251.312C315.604 258.979 317.75 265.25 317.75 270.125H318.625C318.625 265.083 320.75 258.812 325 251.312C329.208 243.896 331.312 238.458 331.312 235C331.312 231.5 330.271 228.229 328.188 225.188L329.812 224C332.188 227.167 336.104 228.75 341.562 228.75H373.562C378.396 228.75 382.5 227.25 385.875 224.25L387.125 225.562C384.167 228.896 382.688 233 382.688 237.875V306.938C382.688 308.854 382.646 310.938 382.562 313.188L381.312 314.438C380.479 312.812 379.25 312 377.625 312H356.562C355.646 312 354.812 312.562 354.062 313.688C353.312 314.812 352.938 315.854 352.938 316.812L354 324.562C354 326.062 353.458 326.812 352.375 326.812C351.292 326.812 350.75 325.917 350.75 324.125ZM398.812 316L399 325.938C399 327.938 398.688 329.438 398.062 330.438C397.438 331.479 396.688 332 395.812 332C394.062 332 393.188 330.312 393.188 326.938C393.188 323.562 393.604 319.812 394.438 315.688C395.271 311.604 396 308.792 396.625 307.25L426.625 233.438C427.042 232.354 427.25 231.292 427.25 230.25C427.25 229.208 426.896 228.188 426.188 227.188L427.938 226.062C429.146 227.854 431.021 228.75 433.562 228.75H462.312C464.812 228.75 466.667 227.854 467.875 226.062L469.688 227.188C468.979 228.188 468.625 229.146 468.625 230.062C468.625 230.979 468.875 232.083 469.375 233.375L500.25 307.312C501.208 309.646 502.688 311.479 504.688 312.812L503.938 314C501.896 312.667 499.625 312 497.125 312H484.875C484.958 312.917 485 313.562 485 313.938C485 315.312 484.438 316 483.312 316C482.812 316 482.354 315.792 481.938 315.375C481.562 315 481.375 314.438 481.375 313.688C481.375 312.979 481.417 312.417 481.5 312H473.938C472.104 312 470.917 313 470.375 315C469.708 317.458 469.375 320.271 469.375 323.438C469.375 326.646 469.583 329.562 470 332.188C470.417 334.812 470.625 336.604 470.625 337.562C470.625 338.562 470.375 339.354 469.875 339.938C469.417 340.562 468.833 340.875 468.125 340.875C467.417 340.875 466.812 340.583 466.312 340C465.812 339.417 465.562 338.604 465.562 337.562C465.562 336.521 465.812 334.5 466.312 331.5C466.854 328.5 467.125 326.25 467.125 324.75V307.188C466.708 306.062 466.5 305.021 466.5 304.062C466.5 303.104 466.875 302.083 467.625 301L466 299.812C464.75 301.604 462.875 302.5 460.375 302.5H434.688C432.188 302.5 430.312 301.625 429.062 299.875L427.438 301C428.229 302.125 428.625 303.167 428.625 304.125C428.625 305.083 428.479 306.104 428.188 307.188V307.25C427.812 308.667 427.625 309.75 427.625 310.5C427.625 311.25 428.042 312.229 428.875 313.438L427.25 314.625C426 312.875 424.125 312 421.625 312H399C398.875 312.792 398.812 314.125 398.812 316ZM441.125 285.188H453.062C455.562 285.188 457.812 285.854 459.812 287.188L460.625 286C458.667 284.667 457.25 282.812 456.375 280.438L448.438 260.125C447.521 257.75 447.042 255.333 447 252.875H446.188C446.104 255.625 445.688 258.042 444.938 260.125L437.75 280.375C436.875 282.792 435.479 284.667 433.562 286L434.375 287.25C436.333 285.875 438.583 285.188 441.125 285.188ZM481.688 332.688C481.688 329.812 482.229 326.208 483.312 321.875C484.521 326.875 485.125 330.125 485.125 331.625C485.125 333.833 484.542 334.938 483.375 334.938C482.25 334.938 481.688 334.188 481.688 332.688ZM614.75 332.5L616.125 319.562C616.125 314.312 613.979 310.312 609.688 307.562C605.438 304.771 600.958 303.542 596.25 303.875C591.542 304.167 588.25 305.75 586.375 308.625C585.417 310 584.938 311.625 584.938 313.5L584.625 330.25C584.625 332.542 584.979 335.938 585.688 340.438C586.396 344.979 586.75 348.396 586.75 350.688C586.75 354.729 585.604 356.75 583.312 356.75C581.021 356.75 579.875 354.792 579.875 350.875C579.875 348.292 580.25 344.583 581 339.75C581.75 334.917 582.167 331.25 582.25 328.75C582.375 326.25 582.438 320.917 582.438 312.75C582.438 310.583 581.771 308.083 580.438 305.25C579.104 302.417 577 298.521 574.125 293.562C571.25 288.604 568.896 284.229 567.062 280.438L565.188 279.375C564.188 281.208 562.417 282.125 559.875 282.125L554.625 282.312C551.042 282.312 548.354 281.438 546.562 279.688L545.25 280.938C545.375 282.479 545.438 285.771 545.438 290.812L545.375 306.125C545.375 310.708 545.458 314.083 545.625 316.25L546.812 325.438C546.812 327.146 546.229 328 545.062 328C543.896 328 543.312 327.208 543.312 325.625L544.312 317.875C544.312 316 543.75 314.5 542.625 313.375C541.542 312.292 540.104 311.75 538.312 311.75C536.562 311.75 535 312.521 533.625 314.062C532.292 315.646 531.625 317.688 531.625 320.188C531.625 322.688 532.083 326.062 533 330.312C533.917 334.604 534.375 337.688 534.375 339.562C534.375 343.479 532.979 345.438 530.188 345.438C527.396 345.438 526 343.521 526 339.688C526 337.896 526.396 334.771 527.188 330.312C528.021 325.854 528.438 322.312 528.438 319.688C528.438 317.062 527.833 314.896 526.625 313.188C525.417 311.521 524.042 310.688 522.5 310.688C520.958 310.688 519.646 311.208 518.562 312.25C517.479 313.333 516.938 314.667 516.938 316.25L518.625 331.062C518.625 333.604 517.688 334.875 515.812 334.875C513.938 334.875 513 333.583 513 331C513 329.5 513.396 326.875 514.188 323.125C514.979 319.417 515.354 316.521 515.312 314.438C515.271 312.354 515.25 285.396 515.25 233.562C515.25 230.979 514.458 228.917 512.875 227.375L514.125 226.125C515.75 227.708 517.812 228.5 520.312 228.5H576.312C585.062 228.5 590.938 228.771 593.938 229.312C596.979 229.812 599.625 230.354 601.875 230.938C604.167 231.521 606.083 232.25 607.625 233.125C609.208 233.958 610.792 235.021 612.375 236.312C614 237.562 615.292 239 616.25 240.625C618.458 244.333 619.562 248.271 619.562 252.438C619.562 256.604 619.229 260.021 618.562 262.688C617.938 265.312 616.875 267.792 615.375 270.125C612.125 275.167 606.417 277.688 598.25 277.688L597.75 279.125C600.375 280.167 602.125 281.604 603 283.438C606.667 291.438 609.375 296.521 611.125 298.688C612.875 300.812 614.5 302.521 616 303.812C617.5 305.104 619.646 306.417 622.438 307.75C625.229 309.083 626.917 309.958 627.5 310.375C628.083 310.75 628.375 311.062 628.375 311.312C628.375 315.479 628.938 320.833 630.062 327.375C631.188 333.917 631.75 338.125 631.75 340C631.75 341.875 631.667 343.229 631.5 344.062C631.375 344.896 631.062 345.708 630.562 346.5C630.062 347.333 629.333 347.75 628.375 347.75C627.417 347.75 626.688 347.062 626.188 345.688C625.729 344.312 625.5 342.625 625.5 340.625C625.5 338.625 625.771 335.042 626.312 329.875C626.854 324.75 627.125 320.875 627.125 318.25C627.125 313.042 625.438 310.438 622.062 310.438C620.396 310.438 619.146 310.729 618.312 311.312C617.521 311.896 617.125 313.083 617.125 314.875C617.125 316.708 617.5 319.604 618.25 323.562C619 327.521 619.375 330.5 619.375 332.5C619.375 334.542 618.604 335.562 617.062 335.562C615.521 335.562 614.75 334.542 614.75 332.5ZM573.125 249.25L558.375 249.688C552.333 249.688 548.396 248.792 546.562 247L545.25 248.188C546.917 249.812 547.75 251.896 547.75 254.438V258.625C547.75 261.125 546.917 263.208 545.25 264.875L546.562 266.125C548.354 264.292 552.062 263.375 557.688 263.375L573.5 263.938C577.708 263.938 580.958 263.396 583.25 262.312C585.583 261.188 586.75 259.146 586.75 256.188C586.75 254.312 586.104 252.854 584.812 251.812C583.521 250.729 581.958 250.042 580.125 249.75C578.292 249.417 575.958 249.25 573.125 249.25ZM712.875 330.25L713.5 323.938V312.25C702.292 311.667 693.917 310.146 688.375 307.688C682.833 305.188 678.75 302.062 676.125 298.312C674.542 296.104 673.312 293.646 672.438 290.938C671.604 288.188 670.208 286.125 668.25 284.75L669.188 283.438C671.062 284.688 673.083 285.312 675.25 285.312C677.458 285.312 680.271 285.229 683.688 285.062C687.104 284.896 690.958 284.708 695.25 284.5C699.542 284.25 702.604 284.083 704.438 284C706.271 283.917 707.625 283.667 708.5 283.25C709.375 282.792 710 281.979 710.375 280.812L713.188 281.75C713.062 282.083 713 282.521 713 283.062C713 284.438 714.146 286 716.438 287.75C718.729 289.5 722.875 290.375 728.875 290.375C732.917 290.375 735.792 289.688 737.5 288.312C738.25 287.688 738.625 286.938 738.625 286.062C738.625 284.021 737.5 282.667 735.25 282C733 281.333 730.271 280.771 727.062 280.312C723.896 279.812 720.708 279.417 717.5 279.125C714.333 278.833 710.896 278.417 707.188 277.875C703.479 277.333 699.979 276.75 696.688 276.125C693.396 275.458 690.188 274.5 687.062 273.25C683.979 272 681.333 270.542 679.125 268.875C676.917 267.167 675.125 265 673.75 262.375C672.417 259.708 671.75 256.688 671.75 253.312C671.75 249.938 672.271 246.854 673.312 244.062C674.396 241.271 675.854 238.875 677.688 236.875C679.521 234.875 681.729 233.104 684.312 231.562C686.938 230.021 689.667 228.771 692.5 227.812C695.375 226.854 698.5 226.083 701.875 225.5C707.75 224.417 713.292 223.875 718.5 223.875C723.708 223.875 727.667 223.958 730.375 224.125C733.125 224.25 736.333 224.521 740 224.938C743.708 225.312 747.042 225.958 750 226.875C753 227.75 755.958 228.875 758.875 230.25C764.958 233.083 769.229 237.479 771.688 243.438C772.688 245.562 774.062 247.542 775.812 249.375L775 250.812C773.25 249.604 771.229 249 768.938 249H768.125C764.792 249.125 760.021 249.375 753.812 249.75C747.646 250.083 743.667 250.292 741.875 250.375C740.125 250.458 738.854 250.708 738.062 251.125C737.312 251.542 736.771 252.333 736.438 253.5L733.688 252.75C733.812 252.375 733.875 251.979 733.875 251.562C733.875 249.812 732.458 248.312 729.625 247.062C726.792 245.771 723.583 245.125 720 245.125C713 245.125 709.5 246.5 709.5 249.25C709.5 251.708 714.75 253.5 725.25 254.625C727.708 254.917 730.5 255.208 733.625 255.5C744.5 256.625 752.833 258.104 758.625 259.938C770.792 263.771 776.875 271.083 776.875 281.875C776.875 286.292 775.958 290.271 774.125 293.812C772.292 297.312 769.896 300.167 766.938 302.375C764.021 304.583 760.562 306.417 756.562 307.875C749.354 310.5 741.125 311.812 731.875 311.812C729.375 311.812 727.896 311.792 727.438 311.75C725.188 311.75 724.062 313.479 724.062 316.938V318.438C724.062 319.562 724.333 321.208 724.875 323.375C725.458 325.583 725.75 327.229 725.75 328.312C725.75 330.521 724.979 331.625 723.438 331.625C722.646 331.625 722.021 331.292 721.562 330.625C721.146 329.958 720.938 329.125 720.938 328.125C720.938 327.125 721.188 325.417 721.688 323C722.229 320.625 722.5 318.896 722.5 317.812C722.5 316.729 722.479 315.958 722.438 315.5C722.438 315.083 722.375 314.542 722.25 313.875C722.167 313.25 722 312.792 721.75 312.5C721.167 311.75 720.167 311.375 718.75 311.375C716.167 311.375 714.875 313.625 714.875 318.125L715.25 328.375C715.25 331.125 714.854 332.5 714.062 332.5C713.271 332.5 712.875 331.75 712.875 330.25ZM823.125 345.688L823.812 329.062C823.812 323.688 823.604 320.292 823.188 318.875C822.812 317.458 822.417 316.208 822 315.125C821.583 314.042 821.042 313.167 820.375 312.5C819.708 311.833 818.917 311.208 818 310.625C816.25 309.458 813.5 308.875 809.75 308.875C806 308.875 802.833 310.396 800.25 313.438C797.708 316.479 796.438 320.125 796.438 324.375C796.438 325.958 796.75 328.312 797.375 331.438C798 334.604 798.312 336.979 798.312 338.562C798.312 341.562 797.25 343.062 795.125 343.062C793 343.062 791.938 341.604 791.938 338.688C791.938 337.062 792.25 334.625 792.875 331.375C793.542 328.125 793.875 325.667 793.875 324L794.312 307.25V233.812C794.312 231.229 793.5 229.146 791.875 227.562L793.125 226.25C794.875 227.917 796.958 228.75 799.375 228.75H822C824.5 228.75 826.583 227.917 828.25 226.25L829.5 227.562C827.875 229.188 827.062 231.271 827.062 233.812V306.938C827.062 309.104 826.833 312.833 826.375 318.125C825.917 323.458 825.771 327.562 825.938 330.438H825.875C827.417 337.354 828.188 342.625 828.188 346.25C828.188 349.875 827.5 351.688 826.125 351.688C824.125 351.688 823.125 349.688 823.125 345.688ZM871.938 331.375L873.438 314.438C873.438 313.104 872.688 312 871.188 311.125C868.729 309.75 865.729 309.062 862.188 309.062C857.438 309.062 854.167 310 852.375 311.875C851.583 312.708 851.188 313.917 851.188 315.5C851.188 317.125 851.667 319.938 852.625 323.938C853.583 327.938 854.062 330.75 854.062 332.375C854.062 334.042 853.75 335.354 853.125 336.312C852.542 337.312 851.667 337.812 850.5 337.812C849.333 337.812 848.438 337.312 847.812 336.312C847.188 335.354 846.875 334.042 846.875 332.375C846.875 330.708 847.375 327.833 848.375 323.75C849.417 319.667 849.938 316.583 849.938 314.5L849.875 237.875C849.875 232.958 848.375 228.854 845.375 225.562L846.688 224.25C850.062 227.25 854.167 228.75 859 228.75H877.688C880.354 228.75 882.604 228.438 884.438 227.812C886.312 227.146 887.812 225.854 888.938 223.938L891 224.938C889.917 227.521 889.375 229.958 889.375 232.25C889.375 234.125 892.667 238.833 899.25 246.375C907.833 256.208 913.354 262.812 915.812 266.188C918.271 269.562 919.875 272.292 920.625 274.375H924.375C922.333 271.375 921.312 267.146 921.312 261.688C921.312 259.146 921.625 255.354 922.25 250.312C922.875 245.229 923.188 241.417 923.188 238.875C923.188 232.042 921.021 227.604 916.688 225.562L918 224.25C921.375 227.25 925.479 228.75 930.312 228.75H943.125C947.958 228.75 952.062 227.25 955.438 224.25L956.688 225.562C953.729 228.896 952.25 233 952.25 237.875L952.125 314.188C952.125 315.979 952.542 318.646 953.375 322.188C954.208 325.771 954.625 328.458 954.625 330.25C954.625 332.917 953.604 334.25 951.562 334.25C949.521 334.25 948.5 332.917 948.5 330.25C948.5 328.5 948.896 325.917 949.688 322.5C950.479 319.125 950.875 316.792 950.875 315.5C950.875 314.25 950.458 313.354 949.625 312.812C948.792 312.271 947.979 312 947.188 312H922.5C919 312 917.25 315.188 917.25 321.562C917.25 324.188 917.729 327.979 918.688 332.938C919.688 337.938 920.188 341.708 920.188 344.25C920.188 347.875 918.833 349.688 916.125 349.688C913.417 349.688 912.062 347.854 912.062 344.188C912.062 341.854 912.583 338.458 913.625 334C914.708 329.542 915.271 326.188 915.312 323.938L915.438 315.625C915.562 311.75 915.167 309.229 914.25 308.062L884.312 270.125C883.521 269.083 882.646 266.917 881.688 263.625L877.875 263.75C880.042 266 881.125 268.5 881.125 271.25V306.938L882.312 338.562C882.312 339.229 882.104 339.792 881.688 340.25C881.312 340.75 880.771 341 880.062 341C879.396 341 878.833 340.708 878.375 340.125C877.917 339.583 877.688 338.958 877.688 338.25L878.438 314.25C878.438 313.75 878.25 313.292 877.875 312.875C877.5 312.458 877.062 312.25 876.562 312.25C875.479 312.25 874.938 313.083 874.938 314.75C874.938 316.417 875.208 319.146 875.75 322.938C876.333 326.729 876.625 329.333 876.625 330.75C876.625 333.917 875.833 335.5 874.25 335.5C872.708 335.5 871.938 334.125 871.938 331.375ZM1048.38 292.625C1046.79 291.375 1046 289.917 1046 288.25V287.75C1046 286.083 1046.75 284.5 1048.25 283L1047.38 282.188C1045.88 283.688 1044.31 284.438 1042.69 284.438H1036.62C1034.08 284.438 1032 285.25 1030.38 286.875L1029.06 285.562C1030.73 283.896 1031.56 281.833 1031.56 279.375V270.125C1031.56 267.625 1030.73 265.542 1029.06 263.875L1030.38 262.625C1031.96 264.208 1034.04 265 1036.62 265H1075C1077.58 265 1079.67 264.208 1081.25 262.625L1082.44 263.875C1080.85 265.458 1080.06 267.542 1080.06 270.125V296.312C1080.06 297.604 1080.23 298.646 1080.56 299.438C1080.94 300.188 1081.67 300.854 1082.75 301.438L1081.75 303.25C1081 302.875 1080.15 302.688 1079.19 302.688C1078.27 302.688 1077.21 303.083 1076 303.875C1066.33 310.333 1052.58 313.958 1034.75 314.75V320.75L1035.75 327.688C1035.75 328.688 1035.54 329.458 1035.12 330C1034.71 330.542 1034.23 330.812 1033.69 330.812C1033.19 330.812 1032.73 330.562 1032.31 330.062C1031.9 329.562 1031.69 329.062 1031.69 328.562C1031.69 328.104 1031.77 327.458 1031.94 326.625C1032.44 324.042 1032.69 321.417 1032.69 318.75C1032.69 316.083 1032.5 314.75 1032.12 314.75C1023.96 314.75 1015.38 314.188 1006.38 313.062C1006 312.938 1005.81 315.167 1005.81 319.75C1005.81 324.333 1006.19 329.062 1006.94 333.938C1007.73 338.812 1008.12 342.208 1008.12 344.125C1008.12 348 1006.94 349.938 1004.56 349.938C1003.44 349.938 1002.46 349.5 1001.62 348.625C1000.83 347.75 1000.44 346.333 1000.44 344.375C1000.44 342.458 1001.12 339 1002.5 334C1003.88 329.042 1004.56 325.167 1004.56 322.375V312.625C980.771 307.292 968.875 292.938 968.875 269.562C968.875 251.771 976.208 239.333 990.875 232.25C999.333 228.125 1009.67 226.062 1021.88 226.062C1041.58 226.062 1056.71 229.917 1067.25 237.625C1072.96 241.792 1076.6 246.542 1078.19 251.875C1078.94 254.375 1080.27 256.292 1082.19 257.625L1081.25 258.875C1079.54 257.625 1077.29 257 1074.5 257L1048.12 257.875C1045.5 258.042 1043.73 259.042 1042.81 260.875L1040.75 259.875C1041.08 259.167 1041.25 258.354 1041.25 257.438C1041.25 256.521 1040.54 255.125 1039.12 253.25C1037.71 251.333 1035.75 249.896 1033.25 248.938C1030.79 247.938 1027.52 247.438 1023.44 247.438C1019.4 247.438 1016.1 248.021 1013.56 249.188C1011.02 250.354 1009 251.958 1007.5 254C1004.58 258.125 1003.12 263.583 1003.12 270.375C1003.12 277.167 1005.29 282.771 1009.62 287.188C1014 291.562 1019.71 293.75 1026.75 293.75C1033.79 293.75 1039.15 293.292 1042.81 292.375C1043.48 292.208 1044.12 292.125 1044.75 292.125C1045.38 292.125 1046.33 292.625 1047.62 293.625L1048.38 292.625ZM1167.06 251.125L1168.06 236.875C1168.06 232.625 1167.08 229.521 1165.12 227.562L1166.38 226.25C1168.08 227.917 1170.17 228.75 1172.62 228.75H1194.69C1197.19 228.75 1199.27 227.917 1200.94 226.25L1202.19 227.562C1200.56 229.188 1199.75 231.271 1199.75 233.812V306.938C1199.75 309.438 1200.56 311.521 1202.19 313.188L1200.94 314.438C1199.31 312.812 1197.23 312 1194.69 312H1172.62C1170.08 312 1168 312.812 1166.38 314.438L1165.12 313.188C1166.71 311.604 1167.5 309.521 1167.5 306.938L1167.38 285.938C1167.38 283.438 1168.17 281.375 1169.75 279.75L1168.5 278.5C1166.92 280.083 1164.83 280.875 1162.25 280.875H1136.62C1134.08 280.875 1132 280.083 1130.38 278.5L1129.12 279.75C1129.21 280.708 1129.25 285.75 1129.25 294.875V323.062C1129.25 326.854 1129.73 332.229 1130.69 339.188C1131.65 346.146 1132.12 351.062 1132.12 353.938C1132.12 356.812 1131.77 358.771 1131.06 359.812C1130.4 360.854 1129.58 361.375 1128.62 361.375C1127.67 361.375 1126.83 360.854 1126.12 359.812C1125.46 358.812 1125.12 357.771 1125.12 356.688C1125.12 355.646 1125.33 353.208 1125.75 349.375C1127 337.792 1127.62 329.083 1127.62 323.25C1127.62 320.375 1126.75 317.875 1125 315.75C1121.58 311.625 1116.9 309.562 1110.94 309.562C1107.9 309.562 1105.33 310.271 1103.25 311.688C1101.21 313.104 1100.19 315.062 1100.19 317.562C1100.19 320.104 1100.58 323.812 1101.38 328.688C1102.21 333.562 1102.62 336.938 1102.62 338.812C1102.62 342.688 1101.42 344.625 1099 344.625C1097.88 344.625 1096.92 344.188 1096.12 343.312C1095.33 342.479 1094.94 341.083 1094.94 339.125C1094.94 337.208 1095.6 333.75 1096.94 328.75C1098.31 323.75 1099 319.854 1099 317.062V233.812C1099 231.188 1098.21 229.104 1096.62 227.562L1097.81 226.25C1099.52 227.917 1101.6 228.75 1104.06 228.75H1126.5C1128.96 228.75 1131.02 227.917 1132.69 226.25L1134 227.562C1132.08 229.479 1131.12 232.604 1131.12 236.938L1132.06 251.312C1132.06 255.604 1131.08 258.729 1129.12 260.688L1130.38 262C1132 260.375 1134.08 259.562 1136.62 259.562H1162.5C1165.04 259.562 1167.1 260.375 1168.69 262L1170 260.688C1168.04 258.688 1167.06 255.5 1167.06 251.125Z" fill="white"/>
<defs>
<linearGradient id="paint0_linear_161_17" x1="18.1226" y1="60.5" x2="594.82" y2="43.8725" gradientUnits="userSpaceOnUse">
<stop stop-color="#C45FF4"/>
<stop offset="0.452078" stop-color="#4068F5"/>
<stop offset="1" stop-color="#34FCD8"/>
</linearGradient>
</defs>
</svg>
