<svg width="152" height="34" viewBox="0 0 152 34" fill="none" xmlns="http://www.w3.org/2000/svg">
<path d="M5.85938 14.0469C5.85938 14.2188 5.78125 14.3047 5.625 14.3047C5.54688 14.3047 5.48438 14.276 5.4375 14.2188C5.39062 14.1667 5.36719 14.0651 5.36719 13.9141C5.36719 13.763 5.40365 13.4661 5.47656 13.0234C5.54948 12.5859 5.58594 12.2031 5.58594 11.875C5.58594 11.5417 5.5 11.1797 5.32812 10.7891L1.45312 1.875C1.33854 1.59375 1.15365 1.36719 0.898438 1.19531L1 1.04688C1.24479 1.20833 1.52604 1.28906 1.84375 1.28906H4.57031C4.88802 1.28906 5.11719 1.17969 5.25781 0.960938L5.48438 1.10156C5.39583 1.21615 5.35156 1.32812 5.35156 1.4375C5.35156 1.54167 5.42188 1.78125 5.5625 2.15625C5.70833 2.53125 5.89844 3.0026 6.13281 3.57031C6.36719 4.13281 6.58594 4.65625 6.78906 5.14062C6.9974 5.625 7.21615 6.13281 7.44531 6.66406C7.67448 7.19531 7.80208 7.49219 7.82812 7.55469C7.85417 7.49219 7.98177 7.19531 8.21094 6.66406C8.4401 6.13281 8.65625 5.625 8.85938 5.14062C9.06771 4.65625 9.28906 4.13021 9.52344 3.5625C10.0443 2.30729 10.3047 1.60938 10.3047 1.46875C10.3047 1.32812 10.263 1.20573 10.1797 1.10156L10.3984 0.960938C10.5391 1.17969 10.7682 1.28906 11.0859 1.28906H13.8203C14.1432 1.28906 14.4271 1.20833 14.6719 1.04688L14.7656 1.19531C14.5104 1.36719 14.3255 1.59375 14.2109 1.875L10.2812 11.1719C10.2135 11.3281 10.1797 11.7031 10.1797 12.2969C10.1797 12.8906 10.2396 13.5495 10.3594 14.2734C10.4844 15.0026 10.5469 15.5443 10.5469 15.8984C10.5469 16.4036 10.3646 16.6562 10 16.6562C9.64062 16.6562 9.46094 16.4062 9.46094 15.9062C9.46094 15.5677 9.52604 15.0651 9.65625 14.3984C9.78646 13.737 9.85156 13.1302 9.85156 12.5781C9.85156 12.026 9.78385 11.75 9.64844 11.75H5.86719C5.78385 11.75 5.74219 11.9427 5.74219 12.3281L5.85938 14.0469ZM19.7344 16.2109L19.8203 14.1328C19.8203 13.4609 19.7943 13.0365 19.7422 12.8594C19.6953 12.6823 19.6458 12.526 19.5938 12.3906C19.5417 12.2552 19.474 12.1458 19.3906 12.0625C19.3073 11.9792 19.2083 11.901 19.0938 11.8281C18.875 11.6823 18.5312 11.6094 18.0625 11.6094C17.5938 11.6094 17.1979 11.7995 16.875 12.1797C16.5573 12.5599 16.3984 13.0156 16.3984 13.5469C16.3984 13.7448 16.4375 14.0391 16.5156 14.4297C16.5938 14.8255 16.6328 15.1224 16.6328 15.3203C16.6328 15.6953 16.5 15.8828 16.2344 15.8828C15.9688 15.8828 15.8359 15.7005 15.8359 15.3359C15.8359 15.1328 15.875 14.8281 15.9531 14.4219C16.0365 14.0156 16.0781 13.7083 16.0781 13.5L16.1328 11.4062V2.22656C16.1328 1.90365 16.0312 1.64323 15.8281 1.44531L15.9844 1.28125C16.2031 1.48958 16.4635 1.59375 16.7656 1.59375H19.5938C19.9062 1.59375 20.1667 1.48958 20.375 1.28125L20.5312 1.44531C20.3281 1.64844 20.2266 1.90885 20.2266 2.22656V11.3672C20.2266 11.638 20.1979 12.1042 20.1406 12.7656C20.0833 13.4323 20.0651 13.9453 20.0859 14.3047H20.0781C20.2708 15.1693 20.3672 15.8281 20.3672 16.2812C20.3672 16.7344 20.2812 16.9609 20.1094 16.9609C19.8594 16.9609 19.7344 16.7109 19.7344 16.2109ZM26.7266 9.0625C26.9609 9.17708 27.0781 9.39062 27.0781 9.70312V11.3672C27.0781 11.6849 27.1797 11.9453 27.3828 12.1484L27.2266 12.3047C27.0234 12.1016 26.763 12 26.4453 12H23.7344C23.4167 12 23.1562 12.1016 22.9531 12.3047L22.7969 12.1484C23 11.9453 23.1016 11.6849 23.1016 11.3672V2.22656C23.1016 1.90885 23 1.64844 22.7969 1.44531L22.9531 1.28125C23.1615 1.48958 23.4219 1.59375 23.7344 1.59375H26.4453C26.7578 1.59375 27.0182 1.48958 27.2266 1.28125L27.3828 1.44531C27.1797 1.64844 27.0781 1.90885 27.0781 2.22656V4.65625C27.0781 4.96875 27.0156 5.26823 26.8906 5.55469L27.0078 5.60156C27.1276 5.32031 27.3021 5.07031 27.5312 4.85156L30.4766 2.03125C30.5964 1.91667 30.6693 1.8125 30.6953 1.71875C30.7266 1.625 30.7188 1.5 30.6719 1.34375L30.9453 1.24219C31.0443 1.47656 31.25 1.59375 31.5625 1.59375H35.4844C35.776 1.59375 36.0781 1.53646 36.3906 1.42188L36.4297 1.53125C36.138 1.64062 35.875 1.79948 35.6406 2.00781L32.4688 4.76562C32.2396 4.97396 31.9818 5.0599 31.6953 5.02344L31.6641 5.26562C31.9453 5.29167 32.1745 5.4375 32.3516 5.70312L36.3984 11.4766C36.5755 11.737 36.7995 11.9401 37.0703 12.0859L37 12.2109C36.7344 12.0703 36.4427 12 36.125 12H32.3516C32.0391 12 31.8203 12.1172 31.6953 12.3516L31.4453 12.2188C31.5182 12.0677 31.5469 11.9427 31.5312 11.8438C31.5156 11.7396 31.4609 11.6146 31.3672 11.4688L29.1328 8.17188C28.9609 7.90625 28.8932 7.63021 28.9297 7.34375L28.7188 7.32031C28.6823 7.60156 28.5391 7.84375 28.2891 8.04688L27.5703 8.66406C27.4349 8.77344 27.3177 8.83854 27.2188 8.85938C27.125 8.88021 27.0026 8.86198 26.8516 8.80469L26.7266 9.0625ZM37.7266 12.5L37.75 13.7422C37.75 13.9922 37.7109 14.1797 37.6328 14.3047C37.5547 14.4349 37.4609 14.5 37.3516 14.5C37.1328 14.5 37.0234 14.2891 37.0234 13.8672C37.0234 13.4453 37.0755 12.9766 37.1797 12.4609C37.2839 11.9505 37.375 11.599 37.4531 11.4062L41.2031 2.17969C41.2552 2.04427 41.2812 1.91146 41.2812 1.78125C41.2812 1.65104 41.237 1.52344 41.1484 1.39844L41.3672 1.25781C41.5182 1.48177 41.7526 1.59375 42.0703 1.59375H45.6641C45.9766 1.59375 46.2083 1.48177 46.3594 1.25781L46.5859 1.39844C46.4974 1.52344 46.4531 1.64323 46.4531 1.75781C46.4531 1.8724 46.4844 2.01042 46.5469 2.17188L50.4062 11.4141C50.526 11.7057 50.7109 11.9349 50.9609 12.1016L50.8672 12.25C50.612 12.0833 50.3281 12 50.0156 12H48.4844C48.4948 12.1146 48.5 12.1953 48.5 12.2422C48.5 12.4141 48.4297 12.5 48.2891 12.5C48.2266 12.5 48.1693 12.474 48.1172 12.4219C48.0703 12.375 48.0469 12.3047 48.0469 12.2109C48.0469 12.1224 48.0521 12.0521 48.0625 12H47.1172C46.888 12 46.7396 12.125 46.6719 12.375C46.5885 12.6823 46.5469 13.0339 46.5469 13.4297C46.5469 13.8307 46.5729 14.1953 46.625 14.5234C46.6771 14.8516 46.7031 15.0755 46.7031 15.1953C46.7031 15.3203 46.6719 15.4193 46.6094 15.4922C46.5521 15.5703 46.4792 15.6094 46.3906 15.6094C46.3021 15.6094 46.2266 15.5729 46.1641 15.5C46.1016 15.4271 46.0703 15.3255 46.0703 15.1953C46.0703 15.0651 46.1016 14.8125 46.1641 14.4375C46.2318 14.0625 46.2656 13.7812 46.2656 13.5938V11.3984C46.2135 11.2578 46.1875 11.1276 46.1875 11.0078C46.1875 10.888 46.2344 10.7604 46.3281 10.625L46.125 10.4766C45.9688 10.7005 45.7344 10.8125 45.4219 10.8125H42.2109C41.8984 10.8125 41.6641 10.7031 41.5078 10.4844L41.3047 10.625C41.4036 10.7656 41.4531 10.8958 41.4531 11.0156C41.4531 11.1354 41.4349 11.263 41.3984 11.3984V11.4062C41.3516 11.5833 41.3281 11.7188 41.3281 11.8125C41.3281 11.9062 41.3802 12.0286 41.4844 12.1797L41.2812 12.3281C41.125 12.1094 40.8906 12 40.5781 12H37.75C37.7344 12.099 37.7266 12.2656 37.7266 12.5ZM43.0156 8.64844H44.5078C44.8203 8.64844 45.1016 8.73177 45.3516 8.89844L45.4531 8.75C45.2083 8.58333 45.0312 8.35156 44.9219 8.05469L43.9297 5.51562C43.8151 5.21875 43.7552 4.91667 43.75 4.60938H43.6484C43.638 4.95312 43.5859 5.25521 43.4922 5.51562L42.5938 8.04688C42.4844 8.34896 42.3099 8.58333 42.0703 8.75L42.1719 8.90625C42.4167 8.73438 42.6979 8.64844 43.0156 8.64844ZM48.0859 14.5859C48.0859 14.2266 48.1536 13.776 48.2891 13.2344C48.4401 13.8594 48.5156 14.2656 48.5156 14.4531C48.5156 14.7292 48.4427 14.8672 48.2969 14.8672C48.1562 14.8672 48.0859 14.7734 48.0859 14.5859ZM56.8594 14.2812L56.9375 13.4922V12.0312C55.5365 11.9583 54.4896 11.7682 53.7969 11.4609C53.1042 11.1484 52.5938 10.7578 52.2656 10.2891C52.0677 10.013 51.9141 9.70573 51.8047 9.36719C51.7005 9.02344 51.526 8.76562 51.2812 8.59375L51.3984 8.42969C51.6328 8.58594 51.8854 8.66406 52.1562 8.66406C52.4323 8.66406 52.7839 8.65365 53.2109 8.63281C53.638 8.61198 54.1198 8.58854 54.6562 8.5625C55.1927 8.53125 55.5755 8.51042 55.8047 8.5C56.0339 8.48958 56.2031 8.45833 56.3125 8.40625C56.4219 8.34896 56.5 8.2474 56.5469 8.10156L56.8984 8.21875C56.8828 8.26042 56.875 8.3151 56.875 8.38281C56.875 8.55469 57.0182 8.75 57.3047 8.96875C57.5911 9.1875 58.1094 9.29688 58.8594 9.29688C59.3646 9.29688 59.724 9.21094 59.9375 9.03906C60.0312 8.96094 60.0781 8.86719 60.0781 8.75781C60.0781 8.5026 59.9375 8.33333 59.6562 8.25C59.375 8.16667 59.0339 8.09635 58.6328 8.03906C58.237 7.97656 57.8385 7.92708 57.4375 7.89062C57.0417 7.85417 56.612 7.80208 56.1484 7.73438C55.6849 7.66667 55.2474 7.59375 54.8359 7.51562C54.4245 7.43229 54.0234 7.3125 53.6328 7.15625C53.2474 7 52.9167 6.81771 52.6406 6.60938C52.3646 6.39583 52.1406 6.125 51.9688 5.79688C51.8021 5.46354 51.7188 5.08594 51.7188 4.66406C51.7188 4.24219 51.7839 3.85677 51.9141 3.50781C52.0495 3.15885 52.2318 2.85938 52.4609 2.60938C52.6901 2.35938 52.9661 2.13802 53.2891 1.94531C53.6172 1.7526 53.9583 1.59635 54.3125 1.47656C54.6719 1.35677 55.0625 1.26042 55.4844 1.1875C56.2188 1.05208 56.9115 0.984375 57.5625 0.984375C58.2135 0.984375 58.7083 0.994792 59.0469 1.01562C59.3906 1.03125 59.7917 1.0651 60.25 1.11719C60.7135 1.16406 61.1302 1.24479 61.5 1.35938C61.875 1.46875 62.2448 1.60938 62.6094 1.78125C63.3698 2.13542 63.9036 2.6849 64.2109 3.42969C64.3359 3.69531 64.5078 3.94271 64.7266 4.17188L64.625 4.35156C64.4062 4.20052 64.1536 4.125 63.8672 4.125H63.7656C63.349 4.14062 62.7526 4.17188 61.9766 4.21875C61.2057 4.26042 60.7083 4.28646 60.4844 4.29688C60.2656 4.30729 60.1068 4.33854 60.0078 4.39062C59.9141 4.44271 59.8464 4.54167 59.8047 4.6875L59.4609 4.59375C59.4766 4.54688 59.4844 4.4974 59.4844 4.44531C59.4844 4.22656 59.3073 4.03906 58.9531 3.88281C58.599 3.72135 58.1979 3.64062 57.75 3.64062C56.875 3.64062 56.4375 3.8125 56.4375 4.15625C56.4375 4.46354 57.0938 4.6875 58.4062 4.82812C58.7135 4.86458 59.0625 4.90104 59.4531 4.9375C60.8125 5.07812 61.8542 5.26302 62.5781 5.49219C64.099 5.97135 64.8594 6.88542 64.8594 8.23438C64.8594 8.78646 64.7448 9.28385 64.5156 9.72656C64.2865 10.1641 63.987 10.5208 63.6172 10.7969C63.2526 11.0729 62.8203 11.3021 62.3203 11.4844C61.4193 11.8125 60.3906 11.9766 59.2344 11.9766C58.9219 11.9766 58.737 11.974 58.6797 11.9688C58.3984 11.9688 58.2578 12.1849 58.2578 12.6172V12.8047C58.2578 12.9453 58.2917 13.151 58.3594 13.4219C58.4323 13.6979 58.4688 13.9036 58.4688 14.0391C58.4688 14.3151 58.3724 14.4531 58.1797 14.4531C58.0807 14.4531 58.0026 14.4115 57.9453 14.3281C57.8932 14.2448 57.8672 14.1406 57.8672 14.0156C57.8672 13.8906 57.8984 13.6771 57.9609 13.375C58.0286 13.0781 58.0625 12.862 58.0625 12.7266C58.0625 12.5911 58.0599 12.4948 58.0547 12.4375C58.0547 12.3854 58.0469 12.3177 58.0312 12.2344C58.0208 12.1562 58 12.099 57.9688 12.0625C57.8958 11.9688 57.7708 11.9219 57.5938 11.9219C57.2708 11.9219 57.1094 12.2031 57.1094 12.7656L57.1562 14.0469C57.1562 14.3906 57.1068 14.5625 57.0078 14.5625C56.9089 14.5625 56.8594 14.4688 56.8594 14.2812Z" fill="url(#paint0_linear_161_17)"/>
<path d="M6.08594 24.0625C6.32031 24.1771 6.4375 24.3906 6.4375 24.7031V26.3672C6.4375 26.6849 6.53906 26.9453 6.74219 27.1484L6.58594 27.3047C6.38281 27.1016 6.1224 27 5.80469 27H3.09375C2.77604 27 2.51562 27.1016 2.3125 27.3047L2.15625 27.1484C2.35938 26.9453 2.46094 26.6849 2.46094 26.3672V17.2266C2.46094 16.9089 2.35938 16.6484 2.15625 16.4453L2.3125 16.2812C2.52083 16.4896 2.78125 16.5938 3.09375 16.5938H5.80469C6.11719 16.5938 6.3776 16.4896 6.58594 16.2812L6.74219 16.4453C6.53906 16.6484 6.4375 16.9089 6.4375 17.2266V19.6562C6.4375 19.9688 6.375 20.2682 6.25 20.5547L6.36719 20.6016C6.48698 20.3203 6.66146 20.0703 6.89062 19.8516L9.83594 17.0312C9.95573 16.9167 10.0286 16.8125 10.0547 16.7188C10.0859 16.625 10.0781 16.5 10.0312 16.3438L10.3047 16.2422C10.4036 16.4766 10.6094 16.5938 10.9219 16.5938H14.8438C15.1354 16.5938 15.4375 16.5365 15.75 16.4219L15.7891 16.5312C15.4974 16.6406 15.2344 16.7995 15 17.0078L11.8281 19.7656C11.599 19.974 11.3411 20.0599 11.0547 20.0234L11.0234 20.2656C11.3047 20.2917 11.5339 20.4375 11.7109 20.7031L15.7578 26.4766C15.9349 26.737 16.1589 26.9401 16.4297 27.0859L16.3594 27.2109C16.0938 27.0703 15.8021 27 15.4844 27H11.7109C11.3984 27 11.1797 27.1172 11.0547 27.3516L10.8047 27.2188C10.8776 27.0677 10.9062 26.9427 10.8906 26.8438C10.875 26.7396 10.8203 26.6146 10.7266 26.4688L8.49219 23.1719C8.32031 22.9062 8.2526 22.6302 8.28906 22.3438L8.07812 22.3203C8.04167 22.6016 7.89844 22.8438 7.64844 23.0469L6.92969 23.6641C6.79427 23.7734 6.67708 23.8385 6.57812 23.8594C6.48438 23.8802 6.36198 23.862 6.21094 23.8047L6.08594 24.0625ZM29.9844 18.1719L30.0547 22.1641C30.0547 23.5547 29.8828 24.5729 29.5391 25.2188C29.2161 25.8333 28.7552 26.2943 28.1562 26.6016C27.474 26.9557 26.5677 27.1849 25.4375 27.2891V28.75L25.5156 29.5547C25.5156 29.7318 25.4661 29.8203 25.3672 29.8203C25.2682 29.8203 25.2188 29.6484 25.2188 29.3047L25.2656 28.0312C25.2656 27.4688 25.0911 27.1875 24.7422 27.1875C24.4714 27.1875 24.3359 27.4089 24.3359 27.8516C24.3359 27.8516 24.349 28.0781 24.375 28.5312C24.375 28.6875 24.4062 28.9141 24.4688 29.2109C24.5365 29.513 24.5703 29.7266 24.5703 29.8516C24.5703 29.9766 24.5443 30.0807 24.4922 30.1641C24.4401 30.2474 24.3646 30.2891 24.2656 30.2891C24.1667 30.2891 24.0911 30.2448 24.0391 30.1562C23.9922 30.0729 23.9688 29.9714 23.9688 29.8516C23.9688 29.7318 24.0026 29.5339 24.0703 29.2578C24.1432 28.987 24.1797 28.8125 24.1797 28.7344C24.1797 28.6562 24.1797 28.5755 24.1797 28.4922C24.1797 28.4141 24.1771 28.3333 24.1719 28.25C24.1667 28.1667 24.1536 28.0625 24.1328 27.9375C24.0911 27.6771 23.9661 27.5469 23.7578 27.5469C23.3724 27.5469 23.1797 27.9271 23.1797 28.6875V29.0469C23.1797 29.2396 23.2266 29.5208 23.3203 29.8906C23.4141 30.2604 23.4609 30.526 23.4609 30.6875C23.4609 31.0885 23.3307 31.2891 23.0703 31.2891C22.9401 31.2891 22.8359 31.2344 22.7578 31.125C22.6849 31.0156 22.6484 30.875 22.6484 30.7031C22.6484 30.5312 22.6901 30.2396 22.7734 29.8281C22.862 29.4167 22.9062 29.1042 22.9062 28.8906V27.3359C21.4271 27.2682 20.3177 27.0521 19.5781 26.6875C18.2865 26.0625 17.6224 24.875 17.5859 23.125C17.5755 22.6406 17.5703 21.9193 17.5703 20.9609L17.5859 17.3516C17.5859 17.0443 17.4844 16.7865 17.2812 16.5781L17.4453 16.4219C17.638 16.6198 17.8958 16.7188 18.2188 16.7188H20.9844C21.3021 16.7188 21.5599 16.6198 21.7578 16.4219L21.9219 16.5781C21.724 16.7812 21.625 17.0391 21.625 17.3516L21.6406 21.3672C21.6406 22.1432 21.6615 22.6354 21.7031 22.8438C21.7448 23.0521 21.7891 23.2448 21.8359 23.4219C21.888 23.5938 21.9479 23.7318 22.0156 23.8359C22.0885 23.9401 22.1797 24.0521 22.2891 24.1719C22.3984 24.2865 22.5234 24.375 22.6641 24.4375C22.9922 24.5833 23.3125 24.6562 23.625 24.6562C23.9427 24.6562 24.1875 24.6432 24.3594 24.6172C24.5365 24.5859 24.6901 24.5391 24.8203 24.4766C24.9557 24.4089 25.0755 24.3385 25.1797 24.2656C25.2891 24.1875 25.3802 24.0911 25.4531 23.9766C25.5312 23.8568 25.599 23.7448 25.6562 23.6406C25.7135 23.5312 25.7578 23.3958 25.7891 23.2344C25.8255 23.0729 25.8542 22.9323 25.875 22.8125C25.8958 22.6875 25.9115 22.5312 25.9219 22.3438C25.9375 22.0573 25.9453 21.7318 25.9453 21.3672L25.9609 17.3516C25.9609 17.0339 25.8646 16.776 25.6719 16.5781L25.8203 16.4219C26.0182 16.6198 26.2786 16.7188 26.6016 16.7188H29.3672C29.6953 16.7188 29.9557 16.6198 30.1484 16.4219L30.3047 16.5781C30.0911 16.7969 29.9844 17.3281 29.9844 18.1719ZM25.625 31.3359C25.625 31.5807 25.5391 31.7031 25.3672 31.7031C25.1953 31.7031 25.1094 31.5755 25.1094 31.3203C25.1094 31.0703 25.1458 30.8568 25.2188 30.6797C25.2969 30.5078 25.3438 30.4219 25.3594 30.4219C25.375 30.4219 25.4036 30.4688 25.4453 30.5625C25.5651 30.8333 25.625 31.0911 25.625 31.3359ZM44.7188 28.5156L44.8281 27.6484L44.8125 26.3672V20.3125C44.8125 19.9896 44.9271 19.6745 45.1562 19.3672H44.7266C44.5755 20.112 44.1068 21.4349 43.3203 23.3359C42.5755 25.138 42.2031 26.2839 42.2031 26.7734L42.2188 28.4922C42.2188 28.6797 42.2604 28.9583 42.3438 29.3281C42.4323 29.7031 42.4766 29.987 42.4766 30.1797C42.4766 30.4766 42.362 30.625 42.1328 30.625C41.9036 30.625 41.7891 30.474 41.7891 30.1719C41.7891 29.974 41.8359 29.6797 41.9297 29.2891C42.0234 28.9036 42.0703 28.612 42.0703 28.4141C42.0703 27.7891 41.9141 27.3229 41.6016 27.0156C41.2943 26.7135 40.9505 26.5625 40.5703 26.5625C40.1953 26.5625 39.8854 26.6432 39.6406 26.8047C39.3958 26.9661 39.2734 27.1667 39.2734 27.4062L39.3672 28.2578C39.3672 28.4505 39.2969 28.5469 39.1562 28.5469C39.0156 28.5469 38.9453 28.4427 38.9453 28.2344L39.0859 26.7734C39.0859 26.2734 38.7109 25.1354 37.9609 23.3594C37.1797 21.5 36.7161 20.1719 36.5703 19.375H36.1406C36.3594 19.6667 36.4688 19.9792 36.4688 20.3125V28.0312L36.625 29.3438C36.625 29.6198 36.5312 29.7578 36.3438 29.7578C36.1562 29.7578 36.0625 29.625 36.0625 29.3594L36.2344 28.0781C36.2344 27.8802 36.1953 27.737 36.1172 27.6484C35.9453 27.4557 35.3594 27.3594 34.3594 27.3594C33.3594 27.3594 32.8594 27.3646 32.8594 27.375L32.8984 28.4062C32.8984 28.526 32.8385 28.5859 32.7188 28.5859C32.599 28.5859 32.5391 28.5312 32.5391 28.4219L32.5859 27.3359V17.7344C32.5859 17.1198 32.3984 16.6068 32.0234 16.1953L32.1875 16.0312C32.6146 16.4062 33.1276 16.5938 33.7266 16.5938H37.7188C38.401 16.5938 38.8906 16.3958 39.1875 16L39.3906 16.1484C39.125 16.5339 38.9922 16.8906 38.9922 17.2188C38.9922 17.5417 39.0755 17.901 39.2422 18.2969C39.4089 18.6875 39.5911 19.0599 39.7891 19.4141C40.3255 20.3724 40.5938 21.1562 40.5938 21.7656H40.7031C40.7031 21.1354 40.9688 20.3516 41.5 19.4141C42.026 18.487 42.2891 17.8073 42.2891 17.375C42.2891 16.9375 42.1589 16.5286 41.8984 16.1484L42.1016 16C42.3984 16.3958 42.888 16.5938 43.5703 16.5938H47.5703C48.1745 16.5938 48.6875 16.4062 49.1094 16.0312L49.2656 16.1953C48.8958 16.612 48.7109 17.125 48.7109 17.7344V26.3672C48.7109 26.6068 48.7057 26.8672 48.6953 27.1484L48.5391 27.3047C48.4349 27.1016 48.2812 27 48.0781 27H45.4453C45.3307 27 45.2266 27.0703 45.1328 27.2109C45.0391 27.3516 44.9922 27.4818 44.9922 27.6016L45.125 28.5703C45.125 28.7578 45.0573 28.8516 44.9219 28.8516C44.7865 28.8516 44.7188 28.7396 44.7188 28.5156ZM50.7266 27.5L50.75 28.7422C50.75 28.9922 50.7109 29.1797 50.6328 29.3047C50.5547 29.4349 50.4609 29.5 50.3516 29.5C50.1328 29.5 50.0234 29.2891 50.0234 28.8672C50.0234 28.4453 50.0755 27.9766 50.1797 27.4609C50.2839 26.9505 50.375 26.599 50.4531 26.4062L54.2031 17.1797C54.2552 17.0443 54.2812 16.9115 54.2812 16.7812C54.2812 16.651 54.237 16.5234 54.1484 16.3984L54.3672 16.2578C54.5182 16.4818 54.7526 16.5938 55.0703 16.5938H58.6641C58.9766 16.5938 59.2083 16.4818 59.3594 16.2578L59.5859 16.3984C59.4974 16.5234 59.4531 16.6432 59.4531 16.7578C59.4531 16.8724 59.4844 17.0104 59.5469 17.1719L63.4062 26.4141C63.526 26.7057 63.7109 26.9349 63.9609 27.1016L63.8672 27.25C63.612 27.0833 63.3281 27 63.0156 27H61.4844C61.4948 27.1146 61.5 27.1953 61.5 27.2422C61.5 27.4141 61.4297 27.5 61.2891 27.5C61.2266 27.5 61.1693 27.474 61.1172 27.4219C61.0703 27.375 61.0469 27.3047 61.0469 27.2109C61.0469 27.1224 61.0521 27.0521 61.0625 27H60.1172C59.888 27 59.7396 27.125 59.6719 27.375C59.5885 27.6823 59.5469 28.0339 59.5469 28.4297C59.5469 28.8307 59.5729 29.1953 59.625 29.5234C59.6771 29.8516 59.7031 30.0755 59.7031 30.1953C59.7031 30.3203 59.6719 30.4193 59.6094 30.4922C59.5521 30.5703 59.4792 30.6094 59.3906 30.6094C59.3021 30.6094 59.2266 30.5729 59.1641 30.5C59.1016 30.4271 59.0703 30.3255 59.0703 30.1953C59.0703 30.0651 59.1016 29.8125 59.1641 29.4375C59.2318 29.0625 59.2656 28.7812 59.2656 28.5938V26.3984C59.2135 26.2578 59.1875 26.1276 59.1875 26.0078C59.1875 25.888 59.2344 25.7604 59.3281 25.625L59.125 25.4766C58.9688 25.7005 58.7344 25.8125 58.4219 25.8125H55.2109C54.8984 25.8125 54.6641 25.7031 54.5078 25.4844L54.3047 25.625C54.4036 25.7656 54.4531 25.8958 54.4531 26.0156C54.4531 26.1354 54.4349 26.263 54.3984 26.3984V26.4062C54.3516 26.5833 54.3281 26.7188 54.3281 26.8125C54.3281 26.9062 54.3802 27.0286 54.4844 27.1797L54.2812 27.3281C54.125 27.1094 53.8906 27 53.5781 27H50.75C50.7344 27.099 50.7266 27.2656 50.7266 27.5ZM56.0156 23.6484H57.5078C57.8203 23.6484 58.1016 23.7318 58.3516 23.8984L58.4531 23.75C58.2083 23.5833 58.0312 23.3516 57.9219 23.0547L56.9297 20.5156C56.8151 20.2188 56.7552 19.9167 56.75 19.6094H56.6484C56.638 19.9531 56.5859 20.2552 56.4922 20.5156L55.5938 23.0469C55.4844 23.349 55.3099 23.5833 55.0703 23.75L55.1719 23.9062C55.4167 23.7344 55.6979 23.6484 56.0156 23.6484ZM61.0859 29.5859C61.0859 29.2266 61.1536 28.776 61.2891 28.2344C61.4401 28.8594 61.5156 29.2656 61.5156 29.4531C61.5156 29.7292 61.4427 29.8672 61.2969 29.8672C61.1562 29.8672 61.0859 29.7734 61.0859 29.5859ZM77.7188 29.5625L77.8906 27.9453C77.8906 27.2891 77.6224 26.7891 77.0859 26.4453C76.5547 26.0964 75.9948 25.9427 75.4062 25.9844C74.8177 26.0208 74.4062 26.2188 74.1719 26.5781C74.0521 26.75 73.9922 26.9531 73.9922 27.1875L73.9531 29.2812C73.9531 29.5677 73.9974 29.9922 74.0859 30.5547C74.1745 31.1224 74.2188 31.5495 74.2188 31.8359C74.2188 32.3411 74.0755 32.5938 73.7891 32.5938C73.5026 32.5938 73.3594 32.349 73.3594 31.8594C73.3594 31.5365 73.4062 31.0729 73.5 30.4688C73.5938 29.8646 73.6458 29.4062 73.6562 29.0938C73.6719 28.7812 73.6797 28.1146 73.6797 27.0938C73.6797 26.8229 73.5964 26.5104 73.4297 26.1562C73.263 25.8021 73 25.3151 72.6406 24.6953C72.2812 24.0755 71.987 23.5286 71.7578 23.0547L71.5234 22.9219C71.3984 23.151 71.1771 23.2656 70.8594 23.2656L70.2031 23.2891C69.7552 23.2891 69.4193 23.1797 69.1953 22.9609L69.0312 23.1172C69.0469 23.3099 69.0547 23.7214 69.0547 24.3516L69.0469 26.2656C69.0469 26.8385 69.0573 27.2604 69.0781 27.5312L69.2266 28.6797C69.2266 28.8932 69.1536 29 69.0078 29C68.862 29 68.7891 28.901 68.7891 28.7031L68.9141 27.7344C68.9141 27.5 68.8438 27.3125 68.7031 27.1719C68.5677 27.0365 68.388 26.9688 68.1641 26.9688C67.9453 26.9688 67.75 27.0651 67.5781 27.2578C67.4115 27.4557 67.3281 27.7109 67.3281 28.0234C67.3281 28.3359 67.3854 28.7578 67.5 29.2891C67.6146 29.8255 67.6719 30.2109 67.6719 30.4453C67.6719 30.9349 67.4974 31.1797 67.1484 31.1797C66.7995 31.1797 66.625 30.9401 66.625 30.4609C66.625 30.237 66.6745 29.8464 66.7734 29.2891C66.8776 28.7318 66.9297 28.2891 66.9297 27.9609C66.9297 27.6328 66.8542 27.362 66.7031 27.1484C66.5521 26.9401 66.3802 26.8359 66.1875 26.8359C65.9948 26.8359 65.8307 26.901 65.6953 27.0312C65.5599 27.1667 65.4922 27.3333 65.4922 27.5312L65.7031 29.3828C65.7031 29.7005 65.5859 29.8594 65.3516 29.8594C65.1172 29.8594 65 29.6979 65 29.375C65 29.1875 65.0495 28.8594 65.1484 28.3906C65.2474 27.9271 65.2943 27.5651 65.2891 27.3047C65.2839 27.0443 65.2812 23.6745 65.2812 17.1953C65.2812 16.8724 65.1823 16.6146 64.9844 16.4219L65.1406 16.2656C65.3438 16.4635 65.6016 16.5625 65.9141 16.5625H72.9141C74.0078 16.5625 74.7422 16.5964 75.1172 16.6641C75.4974 16.7266 75.8281 16.7943 76.1094 16.8672C76.3958 16.9401 76.6354 17.0312 76.8281 17.1406C77.026 17.2448 77.224 17.3776 77.4219 17.5391C77.625 17.6953 77.7865 17.875 77.9062 18.0781C78.1823 18.5417 78.3203 19.0339 78.3203 19.5547C78.3203 20.0755 78.2786 20.5026 78.1953 20.8359C78.1172 21.1641 77.9844 21.474 77.7969 21.7656C77.3906 22.3958 76.6771 22.7109 75.6562 22.7109L75.5938 22.8906C75.9219 23.0208 76.1406 23.2005 76.25 23.4297C76.7083 24.4297 77.0469 25.0651 77.2656 25.3359C77.4844 25.6016 77.6875 25.8151 77.875 25.9766C78.0625 26.138 78.3307 26.3021 78.6797 26.4688C79.0286 26.6354 79.2396 26.7448 79.3125 26.7969C79.3854 26.8438 79.4219 26.8828 79.4219 26.9141C79.4219 27.4349 79.4922 28.1042 79.6328 28.9219C79.7734 29.7396 79.8438 30.2656 79.8438 30.5C79.8438 30.7344 79.8333 30.9036 79.8125 31.0078C79.7969 31.112 79.7578 31.2135 79.6953 31.3125C79.6328 31.4167 79.5417 31.4688 79.4219 31.4688C79.3021 31.4688 79.2109 31.3828 79.1484 31.2109C79.0911 31.0391 79.0625 30.8281 79.0625 30.5781C79.0625 30.3281 79.0964 29.8802 79.1641 29.2344C79.2318 28.5938 79.2656 28.1094 79.2656 27.7812C79.2656 27.1302 79.0547 26.8047 78.6328 26.8047C78.4245 26.8047 78.2682 26.8411 78.1641 26.9141C78.0651 26.987 78.0156 27.1354 78.0156 27.3594C78.0156 27.5885 78.0625 27.9505 78.1562 28.4453C78.25 28.9401 78.2969 29.3125 78.2969 29.5625C78.2969 29.8177 78.2005 29.9453 78.0078 29.9453C77.8151 29.9453 77.7188 29.8177 77.7188 29.5625ZM72.5156 19.1562L70.6719 19.2109C69.9167 19.2109 69.4245 19.099 69.1953 18.875L69.0312 19.0234C69.2396 19.2266 69.3438 19.487 69.3438 19.8047V20.3281C69.3438 20.6406 69.2396 20.901 69.0312 21.1094L69.1953 21.2656C69.4193 21.0365 69.8828 20.9219 70.5859 20.9219L72.5625 20.9922C73.0885 20.9922 73.4948 20.9245 73.7812 20.7891C74.0729 20.6484 74.2188 20.3932 74.2188 20.0234C74.2188 19.7891 74.138 19.6068 73.9766 19.4766C73.8151 19.3411 73.6198 19.2552 73.3906 19.2188C73.1615 19.1771 72.8698 19.1562 72.5156 19.1562ZM89.9844 29.2812L90.0625 28.4922V27.0312C88.6615 26.9583 87.6146 26.7682 86.9219 26.4609C86.2292 26.1484 85.7188 25.7578 85.3906 25.2891C85.1927 25.013 85.0391 24.7057 84.9297 24.3672C84.8255 24.0234 84.651 23.7656 84.4062 23.5938L84.5234 23.4297C84.7578 23.5859 85.0104 23.6641 85.2812 23.6641C85.5573 23.6641 85.9089 23.6536 86.3359 23.6328C86.763 23.612 87.2448 23.5885 87.7812 23.5625C88.3177 23.5312 88.7005 23.5104 88.9297 23.5C89.1589 23.4896 89.3281 23.4583 89.4375 23.4062C89.5469 23.349 89.625 23.2474 89.6719 23.1016L90.0234 23.2188C90.0078 23.2604 90 23.3151 90 23.3828C90 23.5547 90.1432 23.75 90.4297 23.9688C90.7161 24.1875 91.2344 24.2969 91.9844 24.2969C92.4896 24.2969 92.849 24.2109 93.0625 24.0391C93.1562 23.9609 93.2031 23.8672 93.2031 23.7578C93.2031 23.5026 93.0625 23.3333 92.7812 23.25C92.5 23.1667 92.1589 23.0964 91.7578 23.0391C91.362 22.9766 90.9635 22.9271 90.5625 22.8906C90.1667 22.8542 89.737 22.8021 89.2734 22.7344C88.8099 22.6667 88.3724 22.5938 87.9609 22.5156C87.5495 22.4323 87.1484 22.3125 86.7578 22.1562C86.3724 22 86.0417 21.8177 85.7656 21.6094C85.4896 21.3958 85.2656 21.125 85.0938 20.7969C84.9271 20.4635 84.8438 20.0859 84.8438 19.6641C84.8438 19.2422 84.9089 18.8568 85.0391 18.5078C85.1745 18.1589 85.3568 17.8594 85.5859 17.6094C85.8151 17.3594 86.0911 17.138 86.4141 16.9453C86.7422 16.7526 87.0833 16.5964 87.4375 16.4766C87.7969 16.3568 88.1875 16.2604 88.6094 16.1875C89.3438 16.0521 90.0365 15.9844 90.6875 15.9844C91.3385 15.9844 91.8333 15.9948 92.1719 16.0156C92.5156 16.0312 92.9167 16.0651 93.375 16.1172C93.8385 16.1641 94.2552 16.2448 94.625 16.3594C95 16.4688 95.3698 16.6094 95.7344 16.7812C96.4948 17.1354 97.0286 17.6849 97.3359 18.4297C97.4609 18.6953 97.6328 18.9427 97.8516 19.1719L97.75 19.3516C97.5312 19.2005 97.2786 19.125 96.9922 19.125H96.8906C96.474 19.1406 95.8776 19.1719 95.1016 19.2188C94.3307 19.2604 93.8333 19.2865 93.6094 19.2969C93.3906 19.3073 93.2318 19.3385 93.1328 19.3906C93.0391 19.4427 92.9714 19.5417 92.9297 19.6875L92.5859 19.5938C92.6016 19.5469 92.6094 19.4974 92.6094 19.4453C92.6094 19.2266 92.4323 19.0391 92.0781 18.8828C91.724 18.7214 91.3229 18.6406 90.875 18.6406C90 18.6406 89.5625 18.8125 89.5625 19.1562C89.5625 19.4635 90.2188 19.6875 91.5312 19.8281C91.8385 19.8646 92.1875 19.901 92.5781 19.9375C93.9375 20.0781 94.9792 20.263 95.7031 20.4922C97.224 20.9714 97.9844 21.8854 97.9844 23.2344C97.9844 23.7865 97.8698 24.2839 97.6406 24.7266C97.4115 25.1641 97.112 25.5208 96.7422 25.7969C96.3776 26.0729 95.9453 26.3021 95.4453 26.4844C94.5443 26.8125 93.5156 26.9766 92.3594 26.9766C92.0469 26.9766 91.862 26.974 91.8047 26.9688C91.5234 26.9688 91.3828 27.1849 91.3828 27.6172V27.8047C91.3828 27.9453 91.4167 28.151 91.4844 28.4219C91.5573 28.6979 91.5938 28.9036 91.5938 29.0391C91.5938 29.3151 91.4974 29.4531 91.3047 29.4531C91.2057 29.4531 91.1276 29.4115 91.0703 29.3281C91.0182 29.2448 90.9922 29.1406 90.9922 29.0156C90.9922 28.8906 91.0234 28.6771 91.0859 28.375C91.1536 28.0781 91.1875 27.862 91.1875 27.7266C91.1875 27.5911 91.1849 27.4948 91.1797 27.4375C91.1797 27.3854 91.1719 27.3177 91.1562 27.2344C91.1458 27.1562 91.125 27.099 91.0938 27.0625C91.0208 26.9688 90.8958 26.9219 90.7188 26.9219C90.3958 26.9219 90.2344 27.2031 90.2344 27.7656L90.2812 29.0469C90.2812 29.3906 90.2318 29.5625 90.1328 29.5625C90.0339 29.5625 89.9844 29.4688 89.9844 29.2812ZM103.766 31.2109L103.852 29.1328C103.852 28.4609 103.826 28.0365 103.773 27.8594C103.727 27.6823 103.677 27.526 103.625 27.3906C103.573 27.2552 103.505 27.1458 103.422 27.0625C103.339 26.9792 103.24 26.901 103.125 26.8281C102.906 26.6823 102.562 26.6094 102.094 26.6094C101.625 26.6094 101.229 26.7995 100.906 27.1797C100.589 27.5599 100.43 28.0156 100.43 28.5469C100.43 28.7448 100.469 29.0391 100.547 29.4297C100.625 29.8255 100.664 30.1224 100.664 30.3203C100.664 30.6953 100.531 30.8828 100.266 30.8828C100 30.8828 99.8672 30.7005 99.8672 30.3359C99.8672 30.1328 99.9062 29.8281 99.9844 29.4219C100.068 29.0156 100.109 28.7083 100.109 28.5L100.164 26.4062V17.2266C100.164 16.9036 100.062 16.6432 99.8594 16.4453L100.016 16.2812C100.234 16.4896 100.495 16.5938 100.797 16.5938H103.625C103.938 16.5938 104.198 16.4896 104.406 16.2812L104.562 16.4453C104.359 16.6484 104.258 16.9089 104.258 17.2266V26.3672C104.258 26.638 104.229 27.1042 104.172 27.7656C104.115 28.4323 104.096 28.9453 104.117 29.3047H104.109C104.302 30.1693 104.398 30.8281 104.398 31.2812C104.398 31.7344 104.312 31.9609 104.141 31.9609C103.891 31.9609 103.766 31.7109 103.766 31.2109ZM109.867 29.4219L110.055 27.3047C110.055 27.138 109.961 27 109.773 26.8906C109.466 26.7188 109.091 26.6328 108.648 26.6328C108.055 26.6328 107.646 26.75 107.422 26.9844C107.323 27.0885 107.273 27.2396 107.273 27.4375C107.273 27.6406 107.333 27.9922 107.453 28.4922C107.573 28.9922 107.633 29.3438 107.633 29.5469C107.633 29.7552 107.594 29.9193 107.516 30.0391C107.443 30.1641 107.333 30.2266 107.188 30.2266C107.042 30.2266 106.93 30.1641 106.852 30.0391C106.773 29.9193 106.734 29.7552 106.734 29.5469C106.734 29.3385 106.797 28.9792 106.922 28.4688C107.052 27.9583 107.117 27.5729 107.117 27.3125L107.109 17.7344C107.109 17.1198 106.922 16.6068 106.547 16.1953L106.711 16.0312C107.133 16.4062 107.646 16.5938 108.25 16.5938H110.586C110.919 16.5938 111.201 16.5547 111.43 16.4766C111.664 16.3932 111.852 16.2318 111.992 15.9922L112.25 16.1172C112.115 16.4401 112.047 16.7448 112.047 17.0312C112.047 17.2656 112.458 17.8542 113.281 18.7969C114.354 20.026 115.044 20.8516 115.352 21.2734C115.659 21.6953 115.859 22.0365 115.953 22.2969H116.422C116.167 21.9219 116.039 21.3932 116.039 20.7109C116.039 20.3932 116.078 19.9193 116.156 19.2891C116.234 18.6536 116.273 18.1771 116.273 17.8594C116.273 17.0052 116.003 16.4505 115.461 16.1953L115.625 16.0312C116.047 16.4062 116.56 16.5938 117.164 16.5938H118.766C119.37 16.5938 119.883 16.4062 120.305 16.0312L120.461 16.1953C120.091 16.612 119.906 17.125 119.906 17.7344L119.891 27.2734C119.891 27.4974 119.943 27.8307 120.047 28.2734C120.151 28.7214 120.203 29.0573 120.203 29.2812C120.203 29.6146 120.076 29.7812 119.82 29.7812C119.565 29.7812 119.438 29.6146 119.438 29.2812C119.438 29.0625 119.487 28.7396 119.586 28.3125C119.685 27.8906 119.734 27.599 119.734 27.4375C119.734 27.2812 119.682 27.1693 119.578 27.1016C119.474 27.0339 119.372 27 119.273 27H116.188C115.75 27 115.531 27.3984 115.531 28.1953C115.531 28.5234 115.591 28.9974 115.711 29.6172C115.836 30.2422 115.898 30.7135 115.898 31.0312C115.898 31.4844 115.729 31.7109 115.391 31.7109C115.052 31.7109 114.883 31.4818 114.883 31.0234C114.883 30.7318 114.948 30.3073 115.078 29.75C115.214 29.1927 115.284 28.7734 115.289 28.4922L115.305 27.4531C115.32 26.9688 115.271 26.6536 115.156 26.5078L111.414 21.7656C111.315 21.6354 111.206 21.3646 111.086 20.9531L110.609 20.9688C110.88 21.25 111.016 21.5625 111.016 21.9062V26.3672L111.164 30.3203C111.164 30.4036 111.138 30.474 111.086 30.5312C111.039 30.5938 110.971 30.625 110.883 30.625C110.799 30.625 110.729 30.5885 110.672 30.5156C110.615 30.4479 110.586 30.3698 110.586 30.2812L110.68 27.2812C110.68 27.2188 110.656 27.1615 110.609 27.1094C110.562 27.0573 110.508 27.0312 110.445 27.0312C110.31 27.0312 110.242 27.1354 110.242 27.3438C110.242 27.5521 110.276 27.8932 110.344 28.3672C110.417 28.8411 110.453 29.1667 110.453 29.3438C110.453 29.7396 110.354 29.9375 110.156 29.9375C109.964 29.9375 109.867 29.7656 109.867 29.4219ZM131.922 24.5781C131.724 24.4219 131.625 24.2396 131.625 24.0312V23.9688C131.625 23.7604 131.719 23.5625 131.906 23.375L131.797 23.2734C131.609 23.4609 131.414 23.5547 131.211 23.5547H130.453C130.135 23.5547 129.875 23.6562 129.672 23.8594L129.508 23.6953C129.716 23.487 129.82 23.2292 129.82 22.9219V21.7656C129.82 21.4531 129.716 21.1927 129.508 20.9844L129.672 20.8281C129.87 21.026 130.13 21.125 130.453 21.125H135.25C135.573 21.125 135.833 21.026 136.031 20.8281L136.18 20.9844C135.982 21.1823 135.883 21.4427 135.883 21.7656V25.0391C135.883 25.2005 135.904 25.3307 135.945 25.4297C135.992 25.5234 136.083 25.6068 136.219 25.6797L136.094 25.9062C136 25.8594 135.893 25.8359 135.773 25.8359C135.659 25.8359 135.526 25.8854 135.375 25.9844C134.167 26.7917 132.448 27.2448 130.219 27.3438V28.0938L130.344 28.9609C130.344 29.0859 130.318 29.1823 130.266 29.25C130.214 29.3177 130.154 29.3516 130.086 29.3516C130.023 29.3516 129.966 29.3203 129.914 29.2578C129.862 29.1953 129.836 29.1328 129.836 29.0703C129.836 29.013 129.846 28.9323 129.867 28.8281C129.93 28.5052 129.961 28.1771 129.961 27.8438C129.961 27.5104 129.938 27.3438 129.891 27.3438C128.87 27.3438 127.797 27.2734 126.672 27.1328C126.625 27.1172 126.602 27.3958 126.602 27.9688C126.602 28.5417 126.648 29.1328 126.742 29.7422C126.841 30.3516 126.891 30.776 126.891 31.0156C126.891 31.5 126.742 31.7422 126.445 31.7422C126.305 31.7422 126.182 31.6875 126.078 31.5781C125.979 31.4688 125.93 31.2917 125.93 31.0469C125.93 30.8073 126.016 30.375 126.188 29.75C126.359 29.1302 126.445 28.6458 126.445 28.2969V27.0781C123.471 26.4115 121.984 24.6172 121.984 21.6953C121.984 19.4714 122.901 17.9167 124.734 17.0312C125.792 16.5156 127.083 16.2578 128.609 16.2578C131.073 16.2578 132.964 16.7396 134.281 17.7031C134.995 18.224 135.451 18.8177 135.648 19.4844C135.742 19.7969 135.909 20.0365 136.148 20.2031L136.031 20.3594C135.818 20.2031 135.536 20.125 135.188 20.125L131.891 20.2344C131.562 20.2552 131.341 20.3802 131.227 20.6094L130.969 20.4844C131.01 20.3958 131.031 20.2943 131.031 20.1797C131.031 20.0651 130.943 19.8906 130.766 19.6562C130.589 19.4167 130.344 19.237 130.031 19.1172C129.724 18.9922 129.315 18.9297 128.805 18.9297C128.299 18.9297 127.888 19.0026 127.57 19.1484C127.253 19.2943 127 19.4948 126.812 19.75C126.448 20.2656 126.266 20.9479 126.266 21.7969C126.266 22.6458 126.536 23.3464 127.078 23.8984C127.625 24.4453 128.339 24.7188 129.219 24.7188C130.099 24.7188 130.768 24.6615 131.227 24.5469C131.31 24.526 131.391 24.5156 131.469 24.5156C131.547 24.5156 131.667 24.5781 131.828 24.7031L131.922 24.5781ZM146.758 19.3906L146.883 17.6094C146.883 17.0781 146.76 16.6901 146.516 16.4453L146.672 16.2812C146.885 16.4896 147.146 16.5938 147.453 16.5938H150.211C150.523 16.5938 150.784 16.4896 150.992 16.2812L151.148 16.4453C150.945 16.6484 150.844 16.9089 150.844 17.2266V26.3672C150.844 26.6797 150.945 26.9401 151.148 27.1484L150.992 27.3047C150.789 27.1016 150.529 27 150.211 27H147.453C147.135 27 146.875 27.1016 146.672 27.3047L146.516 27.1484C146.714 26.9505 146.812 26.6901 146.812 26.3672L146.797 23.7422C146.797 23.4297 146.896 23.1719 147.094 22.9688L146.938 22.8125C146.74 23.0104 146.479 23.1094 146.156 23.1094H142.953C142.635 23.1094 142.375 23.0104 142.172 22.8125L142.016 22.9688C142.026 23.0885 142.031 23.7188 142.031 24.8594V28.3828C142.031 28.8568 142.091 29.5286 142.211 30.3984C142.331 31.2682 142.391 31.8828 142.391 32.2422C142.391 32.6016 142.346 32.8464 142.258 32.9766C142.174 33.1068 142.073 33.1719 141.953 33.1719C141.833 33.1719 141.729 33.1068 141.641 32.9766C141.557 32.8516 141.516 32.7214 141.516 32.5859C141.516 32.4557 141.542 32.151 141.594 31.6719C141.75 30.224 141.828 29.1354 141.828 28.4062C141.828 28.0469 141.719 27.7344 141.5 27.4688C141.073 26.9531 140.487 26.6953 139.742 26.6953C139.362 26.6953 139.042 26.7839 138.781 26.9609C138.526 27.138 138.398 27.3828 138.398 27.6953C138.398 28.013 138.448 28.4766 138.547 29.0859C138.651 29.6953 138.703 30.1172 138.703 30.3516C138.703 30.8359 138.552 31.0781 138.25 31.0781C138.109 31.0781 137.99 31.0234 137.891 30.9141C137.792 30.8099 137.742 30.6354 137.742 30.3906C137.742 30.151 137.826 29.7188 137.992 29.0938C138.164 28.4688 138.25 27.9818 138.25 27.6328V17.2266C138.25 16.8984 138.151 16.638 137.953 16.4453L138.102 16.2812C138.315 16.4896 138.576 16.5938 138.883 16.5938H141.688C141.995 16.5938 142.253 16.4896 142.461 16.2812L142.625 16.4453C142.385 16.6849 142.266 17.0755 142.266 17.6172L142.383 19.4141C142.383 19.9505 142.26 20.3411 142.016 20.5859L142.172 20.75C142.375 20.5469 142.635 20.4453 142.953 20.4453H146.188C146.505 20.4453 146.763 20.5469 146.961 20.75L147.125 20.5859C146.88 20.3359 146.758 19.9375 146.758 19.3906Z" fill="white"/>
<defs>
<linearGradient id="paint0_linear_161_17" x1="3.15094" y1="8.5" x2="75.4462" y2="4.6072" gradientUnits="userSpaceOnUse">
<stop stop-color="#C45FF4"/>
<stop offset="0.452078" stop-color="#4068F5"/>
<stop offset="1" stop-color="#34FCD8"/>
</linearGradient>
</defs>
</svg>
